<?xml version="1.0" encoding="UTF-8" standalone="no"?><!DOCTYPE svg PUBLIC "-//W3C//DTD SVG 1.1//EN" "http://www.w3.org/Graphics/SVG/1.1/DTD/svg11.dtd"><svg width="100%" height="100%" viewBox="0 0 425 44" version="1.1" xmlns="http://www.w3.org/2000/svg" xmlns:xlink="http://www.w3.org/1999/xlink" xml:space="preserve" xmlns:serif="http://www.serif.com/" style="fill-rule:evenodd;clip-rule:evenodd;stroke-linecap:round;stroke-linejoin:round;stroke-miterlimit:1.5;"><g><path d="M28.807,2.44l14.555,-0l0,40.895l-8.151,-0l0,-35.821l0.166,0.11l-7.984,35.711l-11.257,-0l-8.123,-35.794l0.166,-0.083l-0,35.877l-8.179,-0l0,-40.895l14.556,-0l7.458,36.819l-0.721,-0l7.514,-36.819Z" style="fill:#eef169;fill-rule:nonzero;"/><path d="M55.201,43.889c-2.089,0 -3.808,-0.337 -5.157,-1.012c-1.349,-0.675 -2.412,-1.585 -3.188,-2.731c-0.777,-1.146 -1.322,-2.421 -1.636,-3.826c-0.314,-1.405 -0.471,-2.828 -0.471,-4.27l-0,-18.16l8.594,0l0,15.887c0,1.238 0.139,2.375 0.416,3.41c0.278,1.035 0.79,1.867 1.539,2.495c0.749,0.629 1.816,0.943 3.202,0.943c1.35,0 2.496,-0.383 3.438,-1.151c0.943,-0.767 1.664,-1.751 2.163,-2.952c0.499,-1.202 0.748,-2.44 0.748,-3.715l2.412,1.968c0,1.848 -0.281,3.567 -0.845,5.157c-0.564,1.59 -1.363,2.98 -2.398,4.173c-1.035,1.192 -2.297,2.121 -3.785,2.786c-1.488,0.665 -3.165,0.998 -5.032,0.998Zm9.648,-0.554l0,-29.445l8.595,0l0,29.445l-8.595,-0Z" style="fill:#eef169;fill-rule:nonzero;"/><path d="M90.273,44c-1.755,0 -3.447,-0.203 -5.073,-0.61c-1.627,-0.407 -3.082,-1.007 -4.367,-1.802c-1.285,-0.795 -2.301,-1.788 -3.05,-2.981c-0.748,-1.192 -1.123,-2.583 -1.123,-4.172l0,-0.499l8.54,-0l-0,0.388c-0,1.072 0.476,1.857 1.428,2.357c0.952,0.499 2.241,0.748 3.867,0.748c0.851,0 1.668,-0.088 2.454,-0.263c0.786,-0.176 1.432,-0.462 1.941,-0.86c0.508,-0.397 0.762,-0.901 0.762,-1.511c0,-0.979 -0.54,-1.673 -1.622,-2.079c-1.081,-0.407 -2.814,-0.813 -5.198,-1.22c-1.35,-0.222 -2.717,-0.536 -4.104,-0.943c-1.386,-0.406 -2.661,-0.947 -3.826,-1.622c-1.164,-0.674 -2.098,-1.534 -2.8,-2.578c-0.702,-1.044 -1.053,-2.315 -1.053,-3.812c-0,-1.997 0.605,-3.679 1.816,-5.046c1.21,-1.368 2.823,-2.403 4.838,-3.106c2.014,-0.702 4.232,-1.053 6.654,-1.053c2.31,-0 4.463,0.383 6.46,1.15c1.996,0.768 3.613,1.867 4.852,3.3c1.238,1.432 1.857,3.156 1.857,5.171l0,0.388l-8.456,-0l-0,-0.333c-0,-0.739 -0.236,-1.34 -0.707,-1.802c-0.471,-0.462 -1.067,-0.809 -1.788,-1.04c-0.721,-0.231 -1.47,-0.346 -2.246,-0.346c-0.702,-0 -1.428,0.078 -2.177,0.235c-0.748,0.157 -1.381,0.416 -1.899,0.777c-0.517,0.36 -0.776,0.864 -0.776,1.511c0,0.628 0.277,1.141 0.832,1.538c0.554,0.398 1.331,0.721 2.329,0.971c0.998,0.249 2.153,0.485 3.465,0.707c1.239,0.203 2.546,0.485 3.923,0.845c1.377,0.361 2.671,0.869 3.882,1.525c1.211,0.656 2.19,1.516 2.939,2.579c0.748,1.062 1.123,2.407 1.123,4.034c-0,1.682 -0.388,3.123 -1.165,4.325c-0.776,1.201 -1.825,2.176 -3.147,2.925c-1.321,0.748 -2.791,1.303 -4.408,1.663c-1.617,0.361 -3.276,0.541 -4.977,0.541Z" style="fill:#eef169;fill-rule:nonzero;"/><path d="M108.794,43.335l-0,-29.445l8.512,0l-0,29.445l-8.512,-0Zm4.242,-34.241c-1.331,-0 -2.491,-0.351 -3.48,-1.054c-0.988,-0.702 -1.483,-1.691 -1.483,-2.966c0,-1.294 0.495,-2.292 1.483,-2.995c0.989,-0.702 2.149,-1.053 3.48,-1.053c1.349,-0 2.518,0.351 3.507,1.053c0.989,0.703 1.483,1.701 1.483,2.995c0,1.294 -0.494,2.287 -1.483,2.98c-0.989,0.693 -2.158,1.04 -3.507,1.04Z" style="fill:#eef169;fill-rule:nonzero;"/><path d="M137.684,44c-3.235,0 -6.072,-0.652 -8.512,-1.955c-2.44,-1.303 -4.33,-3.119 -5.67,-5.448c-1.34,-2.329 -2.01,-5.018 -2.01,-8.068c0,-3.086 0.67,-5.762 2.01,-8.026c1.34,-2.264 3.23,-4.025 5.67,-5.282c2.44,-1.257 5.277,-1.885 8.512,-1.885c2.421,-0 4.565,0.356 6.432,1.067c1.867,0.712 3.429,1.65 4.686,2.814c1.256,1.165 2.208,2.44 2.855,3.826c0.647,1.387 0.971,2.764 0.971,4.132l-0,0.221l-8.512,0c-0,-0.111 -0.005,-0.217 -0.014,-0.318c-0.009,-0.102 -0.032,-0.208 -0.069,-0.319c-0.148,-0.777 -0.472,-1.507 -0.971,-2.191c-0.499,-0.684 -1.196,-1.243 -2.093,-1.677c-0.896,-0.434 -2.01,-0.652 -3.341,-0.652c-1.423,0 -2.694,0.315 -3.812,0.943c-1.118,0.629 -2.001,1.557 -2.648,2.786c-0.647,1.23 -0.97,2.75 -0.97,4.561c-0,1.775 0.323,3.304 0.97,4.589c0.647,1.284 1.53,2.269 2.648,2.953c1.118,0.683 2.389,1.025 3.812,1.025c1.46,0 2.653,-0.226 3.577,-0.679c0.924,-0.453 1.617,-1.063 2.079,-1.83c0.462,-0.767 0.74,-1.612 0.832,-2.537l8.512,0c-0,1.368 -0.319,2.759 -0.957,4.173c-0.638,1.414 -1.58,2.703 -2.828,3.868c-1.248,1.164 -2.805,2.107 -4.672,2.828c-1.866,0.721 -4.029,1.081 -6.487,1.081Z" style="fill:#eef169;fill-rule:nonzero;"/><path d="M186.979,2.44l14.556,-0l-0,40.895l-8.151,-0l-0,-35.821l0.166,0.11l-7.985,35.711l-11.256,-0l-8.124,-35.794l0.167,-0.083l-0,35.877l-8.179,-0l-0,-40.895l14.555,-0l7.459,36.819l-0.721,-0l7.513,-36.819Z" style="fill:#eef169;fill-rule:nonzero;"/><path d="M217.671,43.972c-3.179,0 -5.979,-0.656 -8.401,-1.968c-2.421,-1.313 -4.311,-3.119 -5.669,-5.421c-1.359,-2.301 -2.038,-4.958 -2.038,-7.971c-0,-2.994 0.679,-5.642 2.038,-7.943c1.358,-2.301 3.248,-4.094 5.669,-5.379c2.422,-1.284 5.222,-1.926 8.401,-1.926c3.179,-0 5.979,0.642 8.401,1.926c2.421,1.285 4.311,3.078 5.67,5.379c1.358,2.301 2.037,4.949 2.037,7.943c0,3.013 -0.679,5.67 -2.037,7.971c-1.359,2.302 -3.249,4.108 -5.67,5.421c-2.422,1.312 -5.222,1.968 -8.401,1.968Zm0,-6.82c1.497,-0 2.8,-0.351 3.909,-1.054c1.109,-0.702 1.969,-1.696 2.579,-2.98c0.61,-1.285 0.915,-2.787 0.915,-4.506c-0,-1.718 -0.305,-3.211 -0.915,-4.477c-0.61,-1.266 -1.47,-2.241 -2.579,-2.925c-1.109,-0.684 -2.412,-1.026 -3.909,-1.026c-1.479,-0 -2.777,0.342 -3.895,1.026c-1.119,0.684 -1.983,1.659 -2.593,2.925c-0.61,1.266 -0.915,2.759 -0.915,4.477c0,1.719 0.305,3.221 0.915,4.506c0.61,1.284 1.474,2.278 2.593,2.98c1.118,0.703 2.416,1.054 3.895,1.054Z" style="fill:#eef169;fill-rule:nonzero;"/><path d="M260.035,43.335l0,-15.97c0,-1.22 -0.157,-2.334 -0.471,-3.341c-0.314,-1.007 -0.878,-1.816 -1.691,-2.426c-0.814,-0.61 -1.987,-0.915 -3.521,-0.915c-1.331,0 -2.482,0.305 -3.452,0.915c-0.971,0.61 -1.715,1.46 -2.232,2.551c-0.518,1.09 -0.776,2.347 -0.776,3.77l-2.385,-1.719c0,-2.55 0.555,-4.787 1.664,-6.709c1.109,-1.922 2.611,-3.429 4.505,-4.519c1.895,-1.091 3.997,-1.636 6.308,-1.636c2.421,-0 4.413,0.485 5.974,1.455c1.562,0.971 2.727,2.32 3.494,4.048c0.767,1.729 1.15,3.748 1.15,6.058l0,18.438l-8.567,-0Zm-20.738,-0l-0,-29.445l8.595,0l-0,29.445l-8.595,-0Z" style="fill:#eef169;fill-rule:nonzero;"/><path d="M288.038,43.972c-3.179,0 -5.98,-0.656 -8.401,-1.968c-2.421,-1.313 -4.311,-3.119 -5.67,-5.421c-1.358,-2.301 -2.038,-4.958 -2.038,-7.971c0,-2.994 0.68,-5.642 2.038,-7.943c1.359,-2.301 3.249,-4.094 5.67,-5.379c2.421,-1.284 5.222,-1.926 8.401,-1.926c3.179,-0 5.979,0.642 8.401,1.926c2.421,1.285 4.311,3.078 5.669,5.379c1.359,2.301 2.038,4.949 2.038,7.943c0,3.013 -0.679,5.67 -2.038,7.971c-1.358,2.302 -3.248,4.108 -5.669,5.421c-2.422,1.312 -5.222,1.968 -8.401,1.968Zm-0,-6.82c1.497,-0 2.8,-0.351 3.909,-1.054c1.109,-0.702 1.969,-1.696 2.579,-2.98c0.609,-1.285 0.914,-2.787 0.914,-4.506c0,-1.718 -0.305,-3.211 -0.914,-4.477c-0.61,-1.266 -1.47,-2.241 -2.579,-2.925c-1.109,-0.684 -2.412,-1.026 -3.909,-1.026c-1.479,-0 -2.777,0.342 -3.896,1.026c-1.118,0.684 -1.982,1.659 -2.592,2.925c-0.61,1.266 -0.915,2.759 -0.915,4.477c0,1.719 0.305,3.221 0.915,4.506c0.61,1.284 1.474,2.278 2.592,2.98c1.119,0.703 2.417,1.054 3.896,1.054Z" style="fill:#eef169;fill-rule:nonzero;"/><rect x="310.079" y="0" width="8.484" height="43.335" style="fill:#eef169;fill-rule:nonzero;"/><path d="M323.027,43.335l0,-29.445l8.512,0l-0,29.445l-8.512,-0Zm4.242,-34.241c-1.331,-0 -2.491,-0.351 -3.479,-1.054c-0.989,-0.702 -1.484,-1.691 -1.484,-2.966c0,-1.294 0.495,-2.292 1.484,-2.995c0.988,-0.702 2.148,-1.053 3.479,-1.053c1.349,-0 2.518,0.351 3.507,1.053c0.989,0.703 1.484,1.701 1.484,2.995c-0,1.294 -0.495,2.287 -1.484,2.98c-0.989,0.693 -2.158,1.04 -3.507,1.04Z" style="fill:#eef169;fill-rule:nonzero;"/><path d="M351.556,43.945c-1.127,-0 -2.287,-0.097 -3.479,-0.292c-1.192,-0.194 -2.301,-0.582 -3.327,-1.164c-1.026,-0.582 -1.853,-1.437 -2.482,-2.565c-0.628,-1.127 -0.942,-2.615 -0.942,-4.463l-0,-14.917l-6.793,0l0,-6.654l1.913,0c1.109,0 1.992,-0.046 2.648,-0.138c0.656,-0.093 1.146,-0.328 1.469,-0.707c0.324,-0.379 0.532,-0.975 0.624,-1.789c0.093,-0.813 0.139,-1.931 0.139,-3.354l-0,-3.715l8.622,-0l0,9.703l8.567,0l0,6.654l-8.567,0l0,12.477c0,1.275 0.153,2.31 0.458,3.105c0.305,0.795 1.067,1.192 2.287,1.192c0.61,0 1.188,-0.055 1.733,-0.166c0.545,-0.111 0.956,-0.222 1.234,-0.333l-0,6.46c-0.388,0.166 -0.934,0.319 -1.636,0.458c-0.702,0.138 -1.525,0.208 -2.468,0.208Z" style="fill:#eef169;fill-rule:nonzero;"/><path d="M382.193,43.335l-0,-15.582c-0,-2.255 -0.407,-3.997 -1.22,-5.226c-0.813,-1.229 -2.301,-1.844 -4.464,-1.844c-1.405,0 -2.588,0.282 -3.549,0.846c-0.961,0.563 -1.686,1.354 -2.176,2.37c-0.49,1.017 -0.735,2.209 -0.735,3.577l-2.495,-1.719c-0,-2.459 0.527,-4.616 1.58,-6.474c1.054,-1.858 2.509,-3.313 4.367,-4.367c1.858,-1.053 4.006,-1.58 6.446,-1.58c3.604,-0 6.312,1.058 8.124,3.174c1.811,2.117 2.717,5.06 2.717,8.831l-0,17.994l-8.595,-0Zm-20.739,-0l0,-43.335l8.595,0l0,43.335l-8.595,-0Z" style="fill:#eef169;fill-rule:nonzero;"/></g><g id="Layer1"><path d="M402.485,2.929l1.317,37.385" style="fill:none;stroke:#eef169;stroke-width:2.92px;"/><path d="M403.802,40.314l15.811,0" style="fill:none;stroke:#eef169;stroke-width:2.92px;"/><path d="M419.614,40.314l1.318,-37.385" style="fill:none;stroke:#eef169;stroke-width:2.92px;"/><path d="M420.932,2.929l-18.447,0" style="fill:none;stroke:#eef169;stroke-width:2.92px;"/><ellipse cx="411.708" cy="40.868" rx="12.518" ry="3.132" style="fill:#eef169;"/></g></svg>